<svg width="25" height="19" viewBox="0 0 25 19" fill="none" xmlns="http://www.w3.org/2000/svg">
<path fill-rule="evenodd" clip-rule="evenodd" d="M21.5828 1.47343C22.6108 1.75596 23.4213 2.58339 23.6981 3.63281C24.2121 5.55002 24.1923 9.54587 24.1923 9.54587C24.1923 9.54587 24.1923 13.5216 23.6981 15.4388C23.4213 16.4882 22.6108 17.3156 21.5828 17.5982C19.7047 18.1027 12.1923 18.1027 12.1923 18.1027C12.1923 18.1027 4.69979 18.1027 2.80193 17.578C1.77392 17.2955 0.963388 16.468 0.686615 15.4186C0.192383 13.5216 0.192383 9.52571 0.192383 9.52571C0.192383 9.52571 0.192383 5.55002 0.686615 3.63281C0.963388 2.58339 1.7937 1.73578 2.80193 1.45324C4.68001 0.948715 12.1923 0.948715 12.1923 0.948715C12.1923 0.948715 19.7047 0.948715 21.5828 1.47343ZM9.80051 5.85285L16.0476 9.52585L9.80051 13.1988V5.85285Z" fill="white"/>
</svg>
